<svg version="1.2" xmlns="http://www.w3.org/2000/svg" viewBox="0 0 1024 1024" width="1024" height="1024">
	<title>ChatGPT Image 1</title>
	<defs>
		<linearGradient id="g1" x2="1" gradientUnits="userSpaceOnUse" gradientTransform="matrix(-441.723,-1093.298,1102.333,-445.374,732.446,1056.187)">
			<stop offset="0" stop-color="#1451ec"/>
			<stop offset="1" stop-color="#3a93f8"/>
		</linearGradient>
	</defs>
	<style>
		.s0 { fill: url(#g1) } 
		.s1 { fill: #fefefe } 
		.s2 { fill: #2671f2 } 
	</style>
	<g id="Layer 1">
		<path class="s0" d="m217 7.5q0.2 0 0.4 0c12.2-0.9 24.8-0.3 37.1-0.3h67.1 209.8 187.2 54.1c23 0 45.6 0 68.3 3.9q3.5 0.5 7 1.2 3.5 0.7 7 1.5 3.5 0.8 6.9 1.7 3.5 1 6.9 2 3.4 1 6.8 2.2 3.4 1.1 6.8 2.4 3.3 1.2 6.6 2.6 3.3 1.3 6.6 2.8 3.2 1.5 6.4 3.1 3.2 1.5 6.4 3.2 3.1 1.7 6.2 3.5 3.1 1.8 6.2 3.6 3 1.9 6 3.9 3 2 5.9 4.1 2.9 2 5.7 4.2 2.8 2.2 5.6 4.5c46.9 38.4 72.2 93.7 78 153.4 1.7 18.4 1.5 36.8 1.6 55.3v60.5 201.3 177.5c0 39.8 2.5 84.4-4.4 123.5-6.6 37.7-21.8 73.4-46.4 103-41.6 49.8-100.8 76.4-164.6 82.2-42.2 2.9-85 1.4-127.3 1.5l-210.9-0.1h-158c-41.9 0.1-84.7 2.5-126.1-5.4-40.5-7.6-79-24.9-110.3-52.1-46.8-40.9-70.3-97.1-74.3-158.4-1.1-16.2-0.8-32.4-0.8-48.6v-66.8-209.6-164c0-40.2-2.7-83.8 4.8-123.4q0.7-3.7 1.5-7.4 0.8-3.6 1.7-7.2 0.9-3.7 1.9-7.3 1-3.5 2.2-7.1 1.2-3.6 2.4-7.1 1.3-3.5 2.7-7 1.4-3.4 2.9-6.9 1.5-3.4 3.1-6.8 1.6-3.3 3.3-6.6 1.8-3.4 3.6-6.6 1.9-3.3 3.8-6.5 1.9-3.2 4-6.3 2-3.1 4.2-6.2 2.2-3 4.4-6 2.3-3 4.6-5.9 2.4-2.9 4.8-5.7c41.8-47.7 98.5-69.2 160.6-73.3z"/>
		<path class="s1" d="m531.7 209.7c20.6-0.6 41.4-0.1 62.1-0.1h116.2 64.1c12.4-0.1 25.5-0.8 37.9 0.7 16.8 2.1 32.9 10.8 43.3 24.2 7.6 10 11.5 21.7 12.8 34 1.2 11 0.9 22.1 0.8 33.1v45.6 153.5 136.5c0 22.5 1.7 52.4-1.3 74.1-4.2 30.3-20.5 55.3-44.7 73.6-11.8 9.3-26.6 15.7-41.2 19.2-7.9 2-15.6 3-23.7 3.3-29.2 1.4-59 0.3-88.3 0.3l-41.9 0.1c-7.7 0-15.6 0.3-23.3-0.2-1.5-0.1-2.7-0.5-4-1.4q-3.4-2.2-3.8-6.2c-1.2-10.9-0.2-22.8-0.2-33.8v-54.3c0-20.7 0.2-41-2.9-61.5q-0.8-6-1.9-11.9-1.1-5.9-2.6-11.8-1.4-5.8-3.1-11.6-1.7-5.7-3.7-11.4-2-5.7-4.3-11.2-2.3-5.6-4.9-11-2.5-5.5-5.4-10.8-2.8-5.3-5.9-10.4-6.7-11.2-14.3-21.7-7.5-10.6-15.9-20.5c-6.5-7.8-13.8-15.2-19.7-23.5-1.6-2.2-2.5-4.2-2.9-6.9-1.9-11.4-0.6-24.5-0.6-36.1l0.1-66.9v-105.7c0-15.4-1.2-31.3-0.1-46.6 0.3-5 1.6-9.6 4.8-13.6 4.7-6 11.2-8.3 18.5-9.1z"/>
		<g>
			<path class="s2" d="m594.1 299.2c9.1-0.9 18.7-0.3 27.8-0.3h53.4 64.6c11.5 0 23.5-0.7 35 0.3 4.9 0.4 8.3 1.1 12.4 3.9 5.9 4 9.8 10.3 11 17.2 1.5 7.9 0.6 17.7-4.1 24.3-4.5 6.2-10 8.8-17.3 10.1-9.5 1.4-19.8 0.7-29.4 0.7h-49.5-65.6c-12.1 0-24.5 0.6-36.6-0.3-5.1-0.4-10.1-1-14.6-3.9-5.4-3.4-8.9-9.2-10.2-15.4-1.7-8.5-1.1-19.3 4-26.5 4.7-6.6 11.5-9 19.1-10.1z"/>
			<path class="s2" d="m592.4 418.6c29.5-0.7 59.1-0.1 88.7-0.1 15.7 0 32.9-1.5 48.5 0.5 4.4 0.5 8.5 1.8 12.1 4.5 6 4.4 9.4 11.1 10.5 18.4 1.2 8.2-0.2 16.9-5.3 23.5-4 5.1-9.3 7.9-15.6 8.7-29.3 0.8-58.7 0-88 0.1l-34 0.2c-6.1 0-12.6 0.4-18.6-0.3-4.2-0.4-8.2-1.7-11.7-4.1-5.4-3.8-8.4-9.6-9.4-16-1.4-8.6-0.5-18.9 4.8-26 4.6-6 10.8-8.4 18-9.4z"/>
			<path class="s2" d="m672.8 538.5c11.2-0.7 22.7-0.3 34-0.3 8 0 16.7-0.8 24.7 0.4 3.5 0.5 6.9 1.7 10 3.5 5.5 3.3 9.7 8.6 11.2 14.9 1.8 7.8 0.7 19.3-3.8 26.1-3.7 5.4-8.6 8.8-15 10.2-11.6 1.6-24 0.7-35.6 0.7-7.9 0-16.2 0.7-24-0.2-4-0.5-7.7-1.4-11.2-3.5q-1-0.5-1.9-1.2-0.9-0.6-1.7-1.4-0.8-0.7-1.6-1.5-0.7-0.8-1.4-1.7-0.6-0.9-1.2-1.9-0.6-0.9-1-1.9-0.5-1-0.9-2.1-0.3-1-0.6-2.1c-1.8-7.4-1.5-21.1 2.8-27.6 3.8-6 10.5-9 17.2-10.4z"/>
		</g>
		<path class="s1" d="m333.8 497.6q4.1-0.1 8.2 0c48.9 0.8 96.9 18.6 131.2 54.4 33.7 35.2 50 84.6 48.5 133-0.1 3.4-0.3 8-3.6 9.8-1.9 1.1-4.5 1.4-6.7 1.5-6.4 0.5-13.3 0-19.8 0-20.6-0.2-47.5-1.6-67.4 1.3-52.7 7.7-73.5 44.1-108.6 77.4-22.6 20.3-43.6 29.3-73.9 32-13.1 1.2-48.9 2.1-61-0.5-4.9-1-9.7-3-13.6-6.4-5.9-5.2-8-12.8-8.3-20.5-0.8-20 0.1-40.4 0.1-60.4-0.1-42.7-1.4-80.7 16.3-121q2.7-6.3 5.9-12.3 3.2-6 7-11.7 3.7-5.7 7.9-11.1 4.1-5.4 8.8-10.4c33.9-37 79.9-53 129-55.1z"/>
		<path class="s1" d="m334 210.5q2.8-0.1 5.6-0.1 2.8-0.1 5.6 0.1 2.8 0.1 5.6 0.3 2.8 0.3 5.6 0.7 2.7 0.4 5.5 0.9 2.8 0.5 5.5 1.2 2.7 0.7 5.4 1.5 2.7 0.8 5.3 1.7 2.7 0.9 5.3 2 2.6 1 5.1 2.2 2.6 1.2 5.1 2.5 2.5 1.3 4.9 2.7 2.4 1.4 4.7 3 2.4 1.5 4.6 3.2 2.3 1.6 4.5 3.4 2.2 1.7 4.3 3.6 2.1 1.9 4.1 3.8 2 2 3.9 4.1 1.9 2 3.7 4.2 1.8 2.1 3.5 4.4 1.6 2.2 3.2 4.5 1.6 2.4 3.1 4.8 1.4 2.4 2.8 4.8 1.3 2.5 2.5 5 1.3 2.5 2.4 5.1 1.1 2.6 2 5.2 1 2.7 1.8 5.3 0.9 2.7 1.6 5.4 0.7 2.7 1.3 5.5 0.5 2.7 1 5.5 0.4 2.8 0.7 5.6 0.3 2.8 0.5 5.6 0.1 2.8 0.2 5.6 0 2.8-0.1 5.6-0.1 2.8-0.4 5.6-0.2 2.8-0.6 5.5-0.4 2.8-0.9 5.6-0.5 2.7-1.2 5.5-0.6 2.7-1.4 5.4-0.8 2.7-1.7 5.3-0.9 2.7-2 5.3-1 2.6-2.2 5.1-1.2 2.6-2.5 5.1-1.2 2.5-2.7 4.9-1.4 2.4-2.9 4.8-1.5 2.3-3.2 4.6-1.6 2.3-3.4 4.4-1.7 2.2-3.6 4.3-1.9 2.1-3.8 4.1-2 2.1-4 4-2.1 1.9-4.2 3.7-2.2 1.8-4.4 3.5-2.3 1.7-4.6 3.3-2.3 1.6-4.7 3-2.4 1.5-4.8 2.8-2.5 1.4-5 2.6-2.5 1.3-5.1 2.4-2.6 1.1-5.2 2.1-2.6 0.9-5.3 1.8-2.7 0.8-5.4 1.5-2.7 0.8-5.5 1.3-2.7 0.6-5.5 1.1-2.7 0.4-5.5 0.7-2.8 0.3-5.6 0.5-2.8 0.2-5.6 0.2-2.9 0.1-5.7 0-2.8-0.1-5.6-0.4-2.8-0.2-5.6-0.6-2.8-0.4-5.6-0.9-2.7-0.5-5.5-1.1-2.7-0.7-5.4-1.5-2.7-0.8-5.4-1.7-2.7-0.9-5.3-1.9-2.6-1.1-5.2-2.3-2.5-1.1-5-2.4-2.5-1.3-5-2.7-2.4-1.5-4.8-3-2.3-1.5-4.6-3.2-2.3-1.6-4.5-3.4-2.2-1.8-4.3-3.6-2.1-1.9-4.1-3.9-2-1.9-4-4-1.9-2.1-3.7-4.2-1.8-2.2-3.5-4.4-1.7-2.3-3.3-4.6-1.6-2.3-3.1-4.7-1.4-2.4-2.8-4.9-1.3-2.5-2.6-5-1.2-2.5-2.3-5.1-1.1-2.6-2.1-5.3-1-2.6-1.8-5.3-0.9-2.7-1.6-5.4-0.7-2.7-1.3-5.5-0.5-2.8-1-5.5-0.4-2.8-0.7-5.6-0.3-2.8-0.5-5.6-0.2-2.9-0.2-5.7 0-2.8 0.1-5.6 0.1-2.8 0.3-5.6 0.3-2.8 0.7-5.6 0.4-2.8 0.9-5.6 0.5-2.8 1.2-5.5 0.6-2.7 1.4-5.4 0.8-2.7 1.8-5.4 0.9-2.7 1.9-5.3 1.1-2.6 2.3-5.2 1.2-2.5 2.5-5 1.3-2.5 2.7-4.9 1.4-2.5 3-4.8 1.5-2.4 3.2-4.7 1.6-2.2 3.4-4.4 1.8-2.2 3.6-4.3 1.9-2.1 3.9-4.1 2-2 4-4 2.1-1.9 4.3-3.7 2.2-1.8 4.4-3.5 2.3-1.7 4.6-3.2 2.3-1.6 4.7-3.1 2.4-1.5 4.9-2.8 2.5-1.4 5-2.6 2.6-1.2 5.1-2.3 2.6-1.1 5.3-2.1 2.6-0.9 5.3-1.8 2.7-0.8 5.4-1.5 2.8-0.7 5.5-1.3 2.8-0.6 5.6-1 2.8-0.4 5.6-0.7 2.8-0.3 5.6-0.5z"/>
	</g>
</svg>